<mxfile host="app.diagrams.net" modified="2024-03-07T23:08:35.943Z" agent="Mozilla/5.0 (Windows NT 10.0; Win64; x64) AppleWebKit/537.36 (KHTML, like Gecko) Chrome/120.0.0.0 YaBrowser/24.1.0.0 Safari/537.36" etag="wexFrTkTWbHkpWP4cgCt" version="24.0.2" type="device">
  <diagram name="Страница — 1" id="b0A-7pjYolw7vi47DuWH">
    <mxGraphModel dx="1386" dy="791" grid="1" gridSize="10" guides="1" tooltips="1" connect="1" arrows="1" fold="1" page="1" pageScale="1" pageWidth="827" pageHeight="1169" math="0" shadow="0">
      <root>
        <mxCell id="0" />
        <mxCell id="1" parent="0" />
        <mxCell id="dS_RcsqamMiCzQS2eSSl-19" style="edgeStyle=orthogonalEdgeStyle;rounded=0;orthogonalLoop=1;jettySize=auto;html=1;exitX=0.5;exitY=1;exitDx=0;exitDy=0;entryX=0.5;entryY=1;entryDx=0;entryDy=0;" edge="1" parent="1" source="dS_RcsqamMiCzQS2eSSl-14" target="dS_RcsqamMiCzQS2eSSl-16">
          <mxGeometry relative="1" as="geometry" />
        </mxCell>
        <mxCell id="dS_RcsqamMiCzQS2eSSl-14" value="" style="rounded=0;whiteSpace=wrap;html=1;" vertex="1" parent="1">
          <mxGeometry x="380" y="590" width="150" height="60" as="geometry" />
        </mxCell>
        <mxCell id="dS_RcsqamMiCzQS2eSSl-3" style="edgeStyle=orthogonalEdgeStyle;rounded=0;orthogonalLoop=1;jettySize=auto;html=1;exitX=0.5;exitY=1;exitDx=0;exitDy=0;entryX=0.5;entryY=0;entryDx=0;entryDy=0;" edge="1" parent="1" source="dS_RcsqamMiCzQS2eSSl-1" target="dS_RcsqamMiCzQS2eSSl-2">
          <mxGeometry relative="1" as="geometry" />
        </mxCell>
        <mxCell id="dS_RcsqamMiCzQS2eSSl-1" value="Начало" style="rounded=1;whiteSpace=wrap;html=1;arcSize=50;" vertex="1" parent="1">
          <mxGeometry x="230" y="130" width="120" height="30" as="geometry" />
        </mxCell>
        <mxCell id="dS_RcsqamMiCzQS2eSSl-5" style="edgeStyle=orthogonalEdgeStyle;rounded=0;orthogonalLoop=1;jettySize=auto;html=1;exitX=1;exitY=0.5;exitDx=0;exitDy=0;entryX=0;entryY=0.5;entryDx=0;entryDy=0;" edge="1" parent="1" source="dS_RcsqamMiCzQS2eSSl-2" target="dS_RcsqamMiCzQS2eSSl-4">
          <mxGeometry relative="1" as="geometry" />
        </mxCell>
        <mxCell id="dS_RcsqamMiCzQS2eSSl-2" value="&lt;div&gt;Ввод&lt;/div&gt;axis_num, {Xi, Yi}&amp;nbsp;" style="shape=parallelogram;perimeter=parallelogramPerimeter;whiteSpace=wrap;html=1;fixedSize=1;" vertex="1" parent="1">
          <mxGeometry x="230" y="180" width="120" height="60" as="geometry" />
        </mxCell>
        <mxCell id="dS_RcsqamMiCzQS2eSSl-8" style="edgeStyle=orthogonalEdgeStyle;rounded=0;orthogonalLoop=1;jettySize=auto;html=1;exitX=0.5;exitY=1;exitDx=0;exitDy=0;entryX=0.5;entryY=0;entryDx=0;entryDy=0;" edge="1" parent="1" source="dS_RcsqamMiCzQS2eSSl-4" target="dS_RcsqamMiCzQS2eSSl-6">
          <mxGeometry relative="1" as="geometry" />
        </mxCell>
        <mxCell id="dS_RcsqamMiCzQS2eSSl-4" value="Цикл i&lt;div&gt;от 1 до n&lt;/div&gt;" style="shape=loopLimit;whiteSpace=wrap;html=1;" vertex="1" parent="1">
          <mxGeometry x="400" y="180" width="100" height="60" as="geometry" />
        </mxCell>
        <mxCell id="dS_RcsqamMiCzQS2eSSl-12" style="edgeStyle=orthogonalEdgeStyle;rounded=0;orthogonalLoop=1;jettySize=auto;html=1;exitX=0.5;exitY=1;exitDx=0;exitDy=0;entryX=0.5;entryY=0;entryDx=0;entryDy=0;" edge="1" parent="1" source="dS_RcsqamMiCzQS2eSSl-6" target="dS_RcsqamMiCzQS2eSSl-10">
          <mxGeometry relative="1" as="geometry" />
        </mxCell>
        <mxCell id="dS_RcsqamMiCzQS2eSSl-6" value="" style="rounded=0;whiteSpace=wrap;html=1;" vertex="1" parent="1">
          <mxGeometry x="370" y="270" width="160" height="200" as="geometry" />
        </mxCell>
        <mxCell id="dS_RcsqamMiCzQS2eSSl-9" value="" style="shape=image;verticalLabelPosition=bottom;labelBackgroundColor=default;verticalAlign=top;aspect=fixed;imageAspect=0;image=data:image/png,iVBORw0KGgoAAAANSUhEUgAAAN4AAAERCAYAAAAUrhliAAAAAXNSR0IArs4c6QAAAARnQU1BAACxjwv8YQUAAAAJcEhZcwAADsMAAA7DAcdvqGQAACIfSURBVHhe7Z3fax3H2cc373vb4ijNRYlxCZULNUmpsGXH1FXABVtJGnSr0PpOBksJ+CJtrVR14IVEdtJALkzlqsWGXNSorSMIInKcGGyI6uDEjlFJgwuKjFF+XJ26UfoH6D2f8T6n4835sXsk7e4cfT+wnJ05uzM7s/PM88zPvWelSiSEyJX/iX+FEDkiwROiACR4QhSABE+IApDgCVEAEjwhCkCCJ0QBSPCEKAAJXiD8/e9/j7Zu3Ro99dRT0Z///Ofovvvui3bu3Bn/K0JDghcIn3/+eXTixInonXfeiZaXl6OFhYXo3//+d/yvCA0JXiA88cQT0aeffuo03qFDh6L3338/2r9/f/yvCA0JXkBcunQpevTRR9355cuX3fkf/vAH5xZhIcELCMzMffv2xa4oevrpp6Pdu3fHLhESWp0gRAFI4wlRABI8IQpAgidEAUjwSsZvf/vb6J577ln18be//S0OUZQRCV7JGBoairq7u915b29vRN9X2qNSqUSDg4PuXlFuJHgl41vf+lY0PT3tzq9du+Y0YFq499ixY7FLlBkJXgn54Q9/GE1OTrrz0dHRTGbjd7/73ZrGFOVF43gl5rHHHovefvvtqKury83NRKOJzkAar8ScOXPGCR2ToZ955pnYV3QCErwSg4abmZlx53/5y180L7ODkOCVnB//+MfRyy+/7M6Hh4fdurx2+Ne//uU6an7zm9/EPhsb1jQy15V8KQTaeJ1Kf38/7de7jpGRkZVKpRJfsbIyOTlZ+29ubs75mZv7q4W+5p6amnL/c7/5EV4eWFp6e3vvev40cD332fOLO8zPz690d3evLC4uxj750dGCZwIyOzvr3GR0tc3khM2HzB8bG4tdK07YKKj2Qvgft8/g4GBbQtAuxMOztyPspI00ia9DZUSlljcdLXgIGgXVFw4yGaHxQRCtMFstyK/B//gZ/Jen0BloZNLjVyatsMqniFo9FHi3Zu3kRa6CR2EhkVZ4TACodajNfYHwhcaEwbQONbh/f9JtIDBJTUU4ydqfQsn9/CKYvtCB/Y8/54SRvCYvLK3kVxphIm+TeQCW54RHHpspm1Uzcn2rQkulRthWWVga0jy/0Soe3gfp8dPKPcRDfM3g+Vpds9bkKnhkjJl5ZCIvm8wn0UmV7wsNGWOFn8wkk3mJlqm+2wdBtAzlfsJpVGCJm/8avVyehfv5TVM78iytjnbhGbjfL2SNIP3JCsnynDwj3aQL4SPP0z4X1/LOeB+EQxj18oX/8Lfn4B6OtKSNh/CtjPj/425VSRK2X/byIFfBQ1PYS05C4vnP8IUGyEw/U5NuXgrh+yBIXGMHYdZ7CTwP1ybv97FCmaXQrBcUMEubX8jqQYEib+uBP2m292F5mhbygvAJg/xpBu+HZ/bfcVqyxENlZOk1Td6KIgQv1+EEti64efNm9L3vfe9r3eJnz56t7ScCzFPcs2dP7Iqi9957z00apnu9nps9SPzNfwifgeeqoFGS3EEXMtOxfOhO/vnPf+72M7l9+3bT7vrqi3ebDRUN08J27drlJkRb+tvh4sWL0a9+9avajJjPPvvMDdgbdLc3Gjsk3z766CP3y3vYsmVL/E99HnnkEfc+2KgpyVrGw5aHt27dcuenT5+Ojh496s6hWTy548QvZ6i1qP0MaiYexUxA0y6+ZkRb+TV30k1NR61qEEYzDWZQA5sW47xRjUyN6GvgVvD8rY52Id3kn58/jTATrx6E4WtM0phWI5G/ZgISBvE00778z/vIajFkjYfrSQd5k/Z9EXbeGi83wSNhvmD5gkdGUhDJLISHgmJuyzyu9wUr6eZ6wjFhRBBbZSZh+4XSzKFkgcY8JXwLu0gsr5oVPh8KLXmRxNJkeUjaSLu9I/LOf0eNMIFoBtfwHOQ34RK3CeBaxgOWP1Qg/ntsFg/XphXStSJXwSNDOKj5fKEhgygcZAwZjJtz/Di3QmIZmXQD1xIu/xGGxcV5Pewav4Y3gU9qCAuLwwpmEZBe0pilkHBPveem8iOd5Bv/m0AYFOBkPmSFOAnbhIwwea/EZaxFPEmI0y9f0Cwe8pT/80SrEwKC9mW1MEdXr16NfdJh08TGx8fdLxDW9u3boyNHjsQ+d2NtoXptsrVkreM5d+6ca+/7aYVG8dDuf+2116Lz58/HPjnhxE+UHrQG2sLXSmlB66HZTPMAYTWr5dEOaI2k5lhr1jIewmjURq0XD3mJtivCitEk6QCgp5UeuZMnT36tVzYN9FpSoy8tLTntR88yPYy/+93v4ivqc/jw4Wjz5s2xa/1YbTxoOfaZQdO98MILse/X8eNB06EF2QqfXuK8kakZAHSRV2tmV1hEZyCNV3LQUGiniYmJ2Ed0AtJ4JYa9Vvr6+qJqW2xVA+WifEjjlRRmagwMDLhFsFmFjvZglt3JRP5I8EoKe6zQrmvU3d8MpuaJciPBKyH0tiE87LOSFTpgGOvbtGlT7CPKiNp4JYOhg56entjVPmoXlhtpvJJx/Pjx+Ex0MtJ4QhSANF5JYXbJfffdF7taw/XqzQwHCV5JYRoTC3OB8bzkZ7g42OIdaBe+/vrrtetF+ZHglRATNJtRTycJLYLkYTPqmb/JsAOrDUQYSPBKCILW398f7d69O/YRnYYEr6R88skntZUIrUxNER4SvBJCm23r1q1O4Og0aWVqGtevX4+Wl5djlygzErySwnfx3nrrrVRrxUwjMtOFL8JyLsqNxvGEKABpPCEKQIInRAFI8IQoAAmeEAUgwesgWIvH/E5mvLBXC72b+vRyOZHgdRjPPfdc9Morr0SPP/54NDs76zZKEuVDgtdBsDs0g+gvvviiG3Rnn0n/C0yiPEjwOgy2jOATXna+bds27cdZQiR4HQRTzdggyZ/tcvDgwWjfvn2xS5QFzVwRogCk8YQoAAmeEAUgwROiACR4AcKGRrYYdjUHy4lEMUjwAmRoaMj1XkJvb2/dRbKNjkqlEg0ODrp7RXFI8AKED01OT0+782vXrmXa0o97WSwrikWCFyjsxzI5OenOR0dHM5mNjPOZxhTFoHG8wGHDI7aJ6OrqihYWFpxGE+VHGi9wzpw544SOydB82kuEgQQvcNBwMzMz7pzNjmwTXFFuJHgdACsR+HIsDA8Puzmb7cBXaOmoKfMaPp6RVRjnzp2LfQKFNp5ozNzcHG3gu47u7u6V2dnZ+IqVlcXFxZXe3l73X39/v/OrCkLtesLIA+ImPp6lUqnEvungeu6bmpqKfcrNyMjIytjYWOwKDwleCnjBFEqDl15tV8WuO1BgKfR+gcc9OTkZu9Yf4ua5iJdnzAJppLIICSrAvCq1tUaCl4LBwcG7alfTgvPz87HPHSj0aD+g4Gct/GuBr6F9rdwMBJbr7dlDgcrOLIzQCK6Nh43Pd+Bs2hNbnWPv27bnyW/K4bb2gO1DkryeMbCk24cFpXv27IldUfTZZ5+5X/u2gUHb4/Tp07WFpydPnnS/eUJ7r1pJuPMDBw64LeBbceHCBTcDxl/HRz4zVEF+EIbt50IepQnTp9U3Hohr586dtbgsbuJqBgt+GUrh+uCIBTAYMN0wMailOdBG1PJoFzSQnyRzcx21IxoAzcW1psEwIX2Nhts3ufwwgDDQbL4GNHgO/ktTC/ttwEbHakw/0kEYvoncCNJCHvjgZ21Xzsk/8oC8T/Nc9m74JT/Im2QcBuFxHXHxfokvaU00gjQSdmgEJ3gUAAp3vczGj4Jh8BKTBY9C4AtG0s31xGEQhi8MzQqeCZN/f1EgNNbea1UwSX+jNHG/305tdm0SnoFrrTJqZcoicFybJf/SpK+MBGdqYs7xgf6BgQFncvrwkY/9+/fHrjtbIfhuwDQ5fPhw7LrbjcnC3EfbswQuXbrkJhVX88odfD6Lj0AmwRS7deuWm8b1xhtvxL7FgdlIOnh2zM92wOSuCkJ06NCh2OfO58M2bdrkzjELMQ8b8cUXX7jNl7hmx44dtfsaYeY879inVTxB4sQvQMzs8WtjX1uZieh3MDQyRQ2uTWrINDUw4VCj80zU6oTZqnY37djsSKtZ6mGahmdqRT1TE8hb3xpAs/BcrdIGxOubmuRRs84mruP/tOEbXB+ixgtK8BAAK4y8qKTg8RIQHl4yhcleCudcz7W+YCXdhG2FhHA4Wr1YCgkFnHsMwlyN0KwWE5C0BZJ8TVY4gOCYP+njnLwEi8PP/0b4wlsPEzqLg7wjXPK2WTz8z3/cHxrBCR7CRmZz8LL8TLca0/x54b5QUJCs4EDSbYJmfhYPRz2soPC/1dIUFOLkSFvw1xLSTR756WoF9/hpMEgDQsB/du5jldRq4J367wgBIz4/rkbxcG8roS4rWp3QYdA+qgpQdPXq1dgnHTZNbHx83P3SPu7p6aHGce560N1Pm2+9aRQP/q+99lrbbdgi0VzNDoIOHsYcT506Ffuk59lnn3X32hjklStXoqo2cef1sHFPOmCyjutloVE8dKxVLZYghQ4keB0CBZTCyKB9cmA/Daxy4JvqS0tLTvsR3gcffPC1yQQ+WT4XvRr8eOh5Rqs/+eSTNe0cIjI1OwRmflTbdjWNJcqNNF4HgIZiIezExETsI8qONF7gYAr29fVFc3NzwbZ3NiLSeAFDe4cZPC+//HJmoaM9mGV3MrG2SPAChj1WaNfVm8LWCnowRXFI8AKFvVUQHvZZyQodMIz1tZo7KdYPtfECxAa3V4vahcUhjRcgrM4QYSONJ0QBSOMFDD2TWfbRZOiBLRWazUYR+SDBCximh9ki1Uaf7rIhAzpU2Csmj0nNojUyNQMFzcVcytu3b8c+6eC+o0ePqlOlYKTxAgXhSW5rIcJBghcoH3/8cbR3797Y1drUFOVCghcobMK0ZcuW2p6hzF6h1ZA8/FktTDGjjffVV1/FPqIoJHgBw+5omzdvjl3NQfPdf//9bsbKT3/605abzIr1RZ0rQhSANJ4QBSDBE6IAJHhCFIAET4gCkOB1EPYZMpuTyXnwnyzuUP73/6rE5yJg2HPy29/+tvtQyLvvvuvmcX7jG9+I7r333ujhhx+OrxJlQcMJHQZf1eGLR+xByZZ/rFBf730vRXZkanYQrExH8GzjV7b8+89//qNlQCVEgtdBsO0625rD8vKyW7nAej2tRCgfMjWFKABpPCEKQIInRAFI8IQoAAleYDRa8Jr1UE9nsUjwAmNoaMht2w69vb11F782OiqVSq3XUxSLBC8w+IDk9PS0O2egPMvWDtx77Nix2CWKRIIXIHzxdXJy0p2Pjo5mMhsZXDeNKYpD43gBw0RoPlPc1dUVLSwsOI0mwkAaL2DOnDnjhI6pYXyyS4SDBC9g0HAzMzPunMnQWbZzF8UiwQsc5mHyRVgYHh52E6XbhaVFfI+B7d7LCu1ZnnE16SwFtPFEc8gm/6iadyvVwu7+m5ubq/mPjIw4P+jt7XV+3d3dsc/60t/f7+Ij3kqlEvumZ35+3j0rv2WH9JHO2dnZ2Cc8JHgp4AVTqK1AT01NObcVUgTO/x8mJyedgOZVkImb+HgOvwJICwWZSiQUFhcXXXrbqWTKgAQvBQgRBdOHAo4/IFy4KQxgNXLe2sPXvlm0AdfmpZnXEioYszxCI8g2HoPGLPhk6hO/uFn4afuM+Pb/U0895fYiAdouXI/bv55OiaTbh+3S/Q+E0BaChx56yP0yrsbY2IULF5ybcH7xi184/zyhvTc2NubODxw4UHvOVrz55ptfm9FCHm7dutWtYgfbz4W0ZYE2WbNBfvKdOHgv9rzcQ1wWdyMeffTR6OzZs7ErMGIBDAbTLqZNqPE4qgXOaRxqbt9kwhyhRuc/ruGc9hC1JZoJP7ST7+Z/HwsDiJfrkxrQDydNLWxtsmZHu6Yfz8H9yWdsBNeZ9jZIB3lGOKSHdFvep3kuriFP+OV+wq+XL/iR77w3/3/yJ/lMSQib5wmR4J7aCkOjl8J/ZvJZQfHbAbxcv22QdFNYKHSGhWEH15qQ+th1/r1FQfp5Tp4njZA0us4KNmkz0oYJXEd+8CzkazLPfJIVHufNrgd7vhAJztRkylM1w6NXXnnFmSKYKgZb2WHy2eY+N27ccBOJ/RkdFy9ejKqFoeaXdL/zzjvOhDHYTqFacHi77mA7BXbwajRL5Je//GV8Vhykf9euXc58XM22D++9954Lw0xmMwW/+c1vul9Md0z5RvApMe7hWTZt2tQwz+AHP/hB7Wu1mJo/+clPate3iidInPgFSrVQuMPwtRW1JeYLfj7Uvn6N7bu5hyzxa1rCT6PF0JxpTTtYT1MzqcVbUc/UBNLum3+ck6dp4NnJe365j57gZqajWQyQJr+BsO2e0AhK41F7UvP5Ws7nww8/dNqJ/59//nl3Tk1LjUktSocB06u2bdvmrk+60ZCGdbgwI+TBBx+MfevDdX/84x+b1uhJzp8/X9OijY52tBXpZOI0M1rSPg+Ww9LSUuz6L2h/Nk0CrImXXnopOnHihHPbusBGA9k8+/j4eOy608ll32uvh2lVrvvZz37mzqFZPHzTHYsmSKovOBioFamdeWwOtIbf/rDxNfOnpsWNP1Dj+lop6ba2kbUvfK3UTPv411lcRdBIy7ei3nAC+Ycf2od0cW4dTAZ5tZaQj/WevVE8PJuvkUMiKMETzcE09CuSLHCfL1hUSghCIxBM38xfLVR69eJrFI9VkmnN6bKhuZodAuY0puGpU6din2xwH1+YNZOOsUs6OBpBp9P27dtdvKuFOKuazq22SFIvHkz7qjBGf/rTnzKZ96UiFkARMGgFav/VmrloEcw3wsG0RAviVw804mrjRFtRBNF0aePB5OcZSXPIaCFsB0DnSFVQ1kT7iHyQqRk4TOWiZ3ZiYiL2ESEgjRcwDB309fW5CQWrGSgX+SONFyh0MAwMDLhFsFmFjoWkzSYui/VHghco7LFCu+7IkSOxT3ro/RTFIsELEGbVIDzMqskKHTCLi4tuRo8oDrXxAoMxr56entjVPmoXFos0XmAcP348PhMhI40nRAFI4wUMWzM0Wh2QhF5QejI7bl1boEjwAoaFo7achqUz9Q5A6F599VV3/uWXX7pfUSwSvEBBqHztRYuh3gFMJGZt3I9+9CPnFsUjwQsUBs737t0bu0RoSPAC5fr169Hu3btjV3NTU5QPCV6gMIDOpkPM14R6ZiaHD5sP0d4TxaPhhEBhA1h272LxaJrFoEntpwH0YpHgCVEAMjWFKAAJnhAFIMETogAkeIHAch46VFgSZF/usa8gifCQ4AXEc889574Z8fjjj0ezs7NurxURJhK8QGB6GIPmL774ohsGuHz58l0fVxFhIcELCAbNGbuzc775oC39wkSCFwgs/2GPFfsEGRw8eDDat29f7BIhoQF0IQpAGk+IApDgCVEAEjwhCkCCVyLs66erPWypkCgvErwSMTQ05Houobe3t+76ukZHpVJx34wTYSDBKxGsq5uennbn165dy/R9A+49duxY7BJlR4JXMtg1bHJy0p2Pjo5mMhsZ4zONKcqNxvFKymOPPRa9/fbbUVdXV7SwsBDuJ4dFXaTxSgpbOiB0TITmy0Cis5DglRQ03MzMjDvnq0AsBxKdgwSvxLAKgf0zYXh4OPV27fWwLdy1hu9OXrDa49y5c7FPAdDG62RIon9UzbeVamGO/11ZWVxcXOnt7XX/9ff3Oz/+t+vn5uZWKpWK8+vu7nZ+/E5NTblr84DnIl6ek2fJCvdwb57PHAIjIyMrY2NjsStfOl7wZmdnXaG1Akvhwz0/P+/cYH5+ocY9OTnpzhG6wcHB2v+8MP5HaPOAeKkwiJO4s0Lh8isb8V+oRKlc86bjBQ/hobb38YXKoGCbIFG4mxVwXhRh5PnCLE4OKpO0ILTck1clERpUumbp5EnubTzaGewdwtQmfnFjc9N9jp/fjsEOtzaJ7TmC27+eToek2+fSpUvR/v37Y1cU3bx50/0+9NBD7tcgrtOnT9cWlp48edL91uOrr75yvw888ID7zQPae1XN5c4PHDhQS0crLly44GbB+Ov4LL/IT8KxvOWzX2nDNQinGbxPwt65c2fNTTxPP/20c6dlveJhYTHDNuRJrsQCmAuYd0RpZh7mDwemEDVyUu2jhajd+Y9rOKd2QhtRk+OHNvPdydrLwgDi5fqkBgTi5do0tR/XEFcjSBPpbHa0a/rx7NxfLw314Dkxk33wI08Jg3NqffKP/E/zXFxrpjd5Qd4l4zAIn+t4Zq6zd5WGvOKxe/IkV8HjZZPIpJln8J+ZRCakfuZRKBAO80u6yXzfRLQw7ODaRi/EhKVVBwT3+3HkDflDOnjWNIWFAttImAjDfxfNrk3Cc1j+c5+9t0Yg5Ai2VbppySOetHm5luRqamLuVBPodsrCJPDVO1271QyrmUQ3btxwJpI/Y+PixYtRtdDX/JJu9iHxNwC6cuWKG4SuptMdt2/fdiZkchYIptatW7fcVK033ngj9v06ZsY2M0PXG/IH86ha86/q2wdMRSNvDh06FPvc+dDlpk2b3DkmJ6ZbI7744gu3+RLX7Nixo3ZfIzD3eZ/2IU2jLPHkjhO/AsBk8M0GX1uhkai18POh1vNrJt/NPSTH12aE30o7UTNSk3IftSlh1KtVszTCTXs2O9JqliRW+9fT2vUgD+uZZ2g6Pz3kI8/VSqMAcRMmv4RBHjbLZ8tj3mkW8oqHdOet8XITPF6oZSJw7hcIMszsdDIXk4FCRoEnU8hUMsjuT7qt4OCmUPGLu1kB55koxIRlWLw+XIe/xQXEkaV3cS2wNGYpJOQfz56EvDd/0s+5VXQWj2+GNoL31gx77/zas5cpHrvef7d5kJvg2cslkRxWgxkUEN+fwo/b2lxkml+Akm4yECHifjKRX4uLjE/iPw/3AtcRhq9JgYrAwvKPeuGuF6SpnhXQCquALI0GabQ8tnOf5PtpB6tArVAjGMTlV1hFx5PFkllLCjM1RTZ8DZUVhNUXWAogAteMrOZauxQdD/55VqCG5moGAJ0/dBydOnUq9snGs88+6+63MUo6naq1vDuvh42B0QGTdVwvC0XHwxhftUIr5AOdErySQ6GhgNCTmuypSwu9uOfPn4+WlpbcBATC/OCDD5ousmVQ+a233rpr4H09KCIeetOZMPHkk09G4+Pj8RX5ooWwJYdhl6o5VNNWojOQxisxaCcWwk5MTMQ+olOQxispmIF9fX1uwkERbRCxvkjjlRDaIAMDA24RbFahoz2YZXcyUQwSvBLCHiu0644cORL7pIfeS1F+JHglg/mgCA/7rGSFDpjFxcWW8xlF8aiNVyLo5u/p6Yld7aN2YfmRxisRx48fj89EpyONJ0QBSOOVFHons+ylSfuOaVEiDCR4JYUpYrZI1faTSR425cuGD+hYEWEgU7OEIGjMpWTFfBYQRr3OMJDGKyFHjx69a2c00XlI8ErIxx9/HO3duzd2tTY1RXhI8EoIe4Fu2bKltrc/S3owIZOHP1bHGCDkvj+kaAsJXkk5fPhwtHnz5tjVHDSiDbzff//9mqsZAOpcEaIApPGEKAAJnhAFIMETogAkeEIUgARvA2Hb3LHDFnM7+ZaAfdZK5IsEbwPx+eefRydOnHALbZeXl6OFhQW3mZLIHwneBuKJJ56IPv30U6fxmID9/vvva2paQUjwNhjMirFPmV2+fNmdZ1l+JNYGCd4GAzNz3759sevOur/du3fHLpEXmrkiRAFI4wlRABI8IQpAgidEAUjwOhCWBdVbOJv10ELb9UOC14EMDQ25LeCht7e37iLaRkelUnEfaxTriwSvA+FDlNPT0+782rVrmRbGcu+xY8dil1gvJHgdCl+PnZycdOejo6OZzEa+mmoaU6wPGsfrcNgWgs8Qd3V1ubmZaDRRPNJ4Hc6ZM2ec0DEZms9/iXIgwetw0HAzMzPunE9/aV5mOZDgbQDYBpCvy8Lw8HBtK8B2YB0f5ms78E137YB2BwleTtQbW6MAr0YIssDXZfv7+935wYMH29p/kwnV7777rtvnsx3Gx8ej73znO1p8C3SuiHzo7e1dGRsbc+eVSsW5BwcHnTsPiLPa3qMzbWVkZCT2Tcfs7OxKVXBj1+og7qoGjl0bEwlejlDoKcAGhQ+/PJmbm3OCx+E/SyuoJKampmLX6lhcXHTppiLYqGxYUxMTz/8mAebPzZs3a3uRsErb4FquwTzj4D6u8a9nLxP+S7oNwqBn8ZFHHol9oujWrVvRrl27Ylc+0N6ral13fuDAAZeGVnANA/H+Oj6gzUa+sNU86SPNpN22nm8E44Rcxwr4jcqGFTw+e3zvvfe6aVJ8V872Hvnoo4/ct+m+/PJL54YrV664qVf0EL766qvufwaYT58+7f5nfIwwnn/++bvcN27ccG7ww0Ag6V38/e9/77ZqrwcD3lYpNDra7eSgrcWzkOY008P++c9/uiEJfwyQCmbPnj1OiN98883or3/9a/TJJ5+4rSTY16UVCOk//vGP2LXx2LCCR42LcFCbUwNTaPilUC4tLblzg+0SbG8S/uc/NMCmTZucZrQC+eCDD96lKR944IH47E4Y3IPA8H2DU6dORVVTz+2DUg80E5VCs6PdTg5gaAFh4plazWpBQJKamXTy7B9++KH7jh/5Atu3b3e/ojkbVvBeeOEFJ0xoLmpvn7Nnz9b2JQEKJ7W7YQWVyciQdGNCEa4vvGy5wBQuE5qrV682FLo84NkQJjSe/9WhrDAr5te//nXsumM+Y0kYaLa8em6DoloINjTz8/Ouo4FfoMGPmw4AqAqLc/sdAfj5PXxJNz2X1nsJFoeFmQa/E6TRsZpeRuvYSdPBQSdMvU4gS5dhvaZpOmF49o3cs7khNR7jUY3MK2uXYUbSSYCJaNCZAPjt2LHDnUPSjfnF/WhSTFnaP+BrwFasp6lJ2pk4zYwWv93WiO9///uuPeh3FgHtVsCfgylpaHoztzGrfdPbB9P+4Ycfjl0bkOoL3HCgjaiZST6/fs1LrU3XuflbLY6faQfcfld80m3hU/P7mms1GmqtIA1V4bhLI6eB9Cc1GWOQfl4yPmd5BOQf1kASND/3+NduNDak4G1kEBaEKCtULMn7EB4qlkYQl5nwPhpAl+BtKNBYCEs9YUgDAmMzXpLtu3oQF9rNF06eoR3B7zQ2bK/mRoOeRdq2jEGySLYduJfeXsYPrS3carUDcW7bts2d00ZmqIYe3Y2OFsJuEJiZU2/oRBSDNN4GAE1Dr+TExETsI4pGGq/DYeigr68vqrazVjVQLtYWabwOhrG1gYEBtwg2q9DRNtOi1fVDgtfB2IA2i2CzwhQ3sX5I8DoUehsRHiZDZ4UOGCaQM/tGrA9q43UgDB309PTErvZRu3D9kMbrQFhrKMqNNJ4QBSCN18HQVmu0OqAerKRQb2Y+SPA6GITOZqownudvG2GHbR9Bu/D11193q8nF+iPB61BsH09b/d1ofZ+t6WP+JsMO2rohHyR4HQpC1NXV1faEaLG+SPA6FDSdbdAErUxNkS8SvA6FbRkwG62N18rUNK5fvx4tLy/HLrFeSPA6mJdeeik+a41pRGa68EVYzsX6oXE8IQpAGk+IApDgCVEAEjwhCkCCJ0QBSPCEKAAJnhAFIMETogAkeEIUgARPiAKQ4AlRABI8IQpAgidEAUjwhCgACZ4QuRNF/w9HYvUXLywAOwAAAABJRU5ErkJggg==;" vertex="1" parent="1">
          <mxGeometry x="372.74" y="280" width="154.51" height="190" as="geometry" />
        </mxCell>
        <mxCell id="dS_RcsqamMiCzQS2eSSl-15" style="edgeStyle=orthogonalEdgeStyle;rounded=0;orthogonalLoop=1;jettySize=auto;html=1;exitX=0.5;exitY=1;exitDx=0;exitDy=0;entryX=0.5;entryY=0;entryDx=0;entryDy=0;" edge="1" parent="1" source="dS_RcsqamMiCzQS2eSSl-10" target="dS_RcsqamMiCzQS2eSSl-14">
          <mxGeometry relative="1" as="geometry" />
        </mxCell>
        <mxCell id="dS_RcsqamMiCzQS2eSSl-10" value="" style="rounded=0;whiteSpace=wrap;html=1;" vertex="1" parent="1">
          <mxGeometry x="350" y="490" width="210" height="80" as="geometry" />
        </mxCell>
        <mxCell id="dS_RcsqamMiCzQS2eSSl-11" value="" style="shape=image;verticalLabelPosition=bottom;labelBackgroundColor=default;verticalAlign=top;aspect=fixed;imageAspect=0;image=data:image/png,iVBORw0KGgoAAAANSUhEUgAAASoAAABoCAYAAABG3b38AAAAAXNSR0IArs4c6QAAAARnQU1BAACxjwv8YQUAAAAJcEhZcwAADsMAAA7DAcdvqGQAABIcSURBVHhe7Z3Nq1XVG8f3/f0BSupQIrxNJMMwXwaag0ANB1EjRRwGF51VEGE6EgmDJhGS4KCZJgkNNMKJgyIMDBIEB2lEObwh+A/4O5/l/t4eV/ucfc65+3rXPn4/sM4+a+1nr5dnrfWstfbr3OMBlTHGFMz/6q0xxhSLDZUxpnhsqIwxxWNDZYwpHhsqY0zx2FAZY4rHhsoYUzw2VMaY4rGhMkXzzz//VJ999ln1ySef1CGmdC5dulQdP3481V1X2FBlvPXWW9Xc3NxTLlf64cOHl/bBTz/9tOSnU8U4/vjjjyTz/fffL4VRkX1C+ZZbt25dKudKg87R5YsvvlidOXOmDn22xLqVe/nll1N9CmTQCfukl9gG+kRbecdp2/SPhYWFateuXUsyy4ZHaMy/LC4u8kjR42vXriX/b7/99viFF154/NVXXyU/3L9//ykZOHDgwONjx46l47X/xIkT9d4nEA8yfYNyUh7KBhcvXkx+dLOSoL+zZ8/WvtWDfGzfvr32PU51SF1GCIsyP/74Y5Jh2zdGlXeStk07oV90gQ1VBp0vdkpA2YcOHap9T8BPRQBbKjYew/5YcRi6vCL7AnmPDRfQUTTeXaMBg46x2lCXsWNifHJDzf/5+fn0n7yjL7WPvtFW3knaNjrpwlgXb6gYzSksisKhJECR+GNniR2KRoKVR46Gg7GRfO6PxDgE6ecju4wTlUdc0UiB0gfKgGwu08Q4IxB5IW7yzxZ/LFPsQLHRTauTvOFqVF3J2YL0m0M+6RSkj6Nu0K8MhXQu8GvmqzaTy1OO3B+JcQB5I54c5YX8ITMObfVdYnnVjgC5UW2bvMe2My3FGyoUoo6DQqlYFIWCUEI0IOpQdCS2yCCPHIokDKVGf95QYqckHmTJQz6yczzhVHZTJRFG5ZK/YTIR0qHxkB/SYtt0DDLEyxaIH6dyk1ZseGp0y9GJ4gDSRb7JiHQJ+dCgFKEtSJ84ZCiv9Bc7lPzIqc0QL7JsgXLEOscf21SMA4gDfUg+wnHsi8c3oXyzRdfkv6msUGJ52YcMx7W1bWTy9jQNxRsqFKFOlIMCqBAROxSo4ejY3K9KjLCfSpCjUqm8HBoL+/PjIxxLfE3H55AnNUoaTzQ2EQwO6eazHsE+GdW80cGkOlEccsgOq48c6WiUG9aICSdvORrNm/RDGPoT6AhdRog3ppn7kY9tijhifom/KV9APMhI/6NARrrnuGHHlFrecds2x8b0pqV4Q0UFUtBcKXSU2CjY4o8diOPiSJD780pSp2xTPvuJi4ZCvoZBZY4yZBHyjzwNgzyOyoMaKPmP5cVIx4ZL2Zoa7iQ6oeGOKuNKQb6GGQTlKdct5Yhh/I9lA+o3DmbRn7cpoE5wbZAWekOW/LVBHcb6HmX4SywvMnl+mnhuDJXIO0zeKVFc3imRjyNR9KuSYgMhjRhnE8ijeBkS5GPHjuSNZBRUugwgaVCemLcm8kYVGy7HqhNEJtXJuA2ya8h3LFuOyheNQjSy6DLXv8JE7ke2qQ0Nq1/BfumI/+O0IdWv2lKbjksqL+RpDaMrQ1X0fVTcszHsPow7d+5UA6Wm/7oZcP369dXt27er8+fPp+3Dhw+rzZs3p325/+7du2kLyMOFCxfSPSOjIE/vvvtutXXr1uQfNLjq66+/Tv8jinPNmjVp28a5c+eW4qQc3I/CNoIuuEdl2I10v/76a9IJ+0+dOpX+r127NsXF/TGT6oR4vvnmm+qll16qQ58dr776ajUY6WvfEyjHqPu3bt26lfRNuS5fvpzC8NM+KMvNmzerQcdM4ZD7aVNqQ9wbhEM/GzdurCX+CzInT56sTp8+nfz79u1L+Ubfw8jrl3qn/nNKLC9M0rb//PPP6vXXX699y6A2WEWCJSaLOEaTfLTA+iucWQFyGpkYeeJokfuZ7nK8ZjBYfqXVtOTQKMh+jTjEQZyExZFOecG1ja6TQJmVHk6jsSBfMVxlUn4n1UnUf5yFPQtIn3TJk6Ac6FN5oq6RE/hjOPmnPNIR9RdnmLmfdsTxClM6uCaQVxsU6BR59BrzPg2llRcmbdvIdNF2/M50UyyaKa/WXelmeTAjZLXxww8/1CHTM/HST7fYty2RjFkuH3zwQXX9+vXU4E2/YDnJkrhpSTsNExuqPXv2VIOpYrV///46xJiVgfMnjMZ//fWXH0ruEQwsnMf65Zdfqk2bNtWhy2OqpR8ndN955520NcaYlWaqq35Mx3WlSE9Tc8XAGGNWgokNFWtP4JKqLpNfvHixOnjwYPqfw+VVvQJimHsWrwwxxvQYln6TwOVXLnNyCVTblYCs2dnZzYZbLhOfo+K8FDcBwsBQ+YqMMWbFmXjpx/mpa9eupeWeDNYovPQzxiyXiWZUnJ967bXXqsXFxeTfsGFDMlpXr15NjxDokQBjjOmSiWZUelYIg4TjfqqjR49We/futZEyxqwczKjM+KCy6Hi2Kn82kIsM2g/x+SjJ8hyXntsjjvgMVl+I5ZLj2S6eIes78TlHufxZu3HquS+UXl4bqgnRg5yqQAwO/nj1k4dRCYsdloagiqeC6dB6aFVxsO0bGNj4YDNlxPD2Heop1iH1S7niw+dt9dwnSi/vVDd8Ps/8/fffS8tf0N35LIsFjw1wRfTRo0fJz5VR7jnTeTweQ7p3797S4wWKg0dF+sag8T71ONWRI0fSq0J0v11fefDgQdryySfgvsGdO3dWN27cSH5oq+c+UXp5e2+ouGKob6qx1RVEng0jTO/OAf7v2LEj/UfJyOvdPbrDXu9hiv4IFRc7pt6X9corr6St4BGjzz//PHVYPUE+rDJJD/h+3SjI0yiIh28Qkm+cvscWyxMNCAZSz9BJX8gjw7HoR++xiv4IV4F3795d+/5t8Hq3VleQL/Kgssm4t9Wz8i6/5PPj5RfxfKxgcNm2bVvte8Ik9Sxoo6PeVwWzVN5OqGdWvYTpKUXQsot1Mo4lFNNTpqRx7cwam6UKU1i2yMSpq5Yx0c/+CNPhOD1GHpfD8ciyxGubFpPHpjiAY8k3W/LCshF/E0zTlZ6OQ15lzt8NpLJIX8hRdrZAnqQz+aM+pX+VjziIU/JdEpchlAFdtNUzsE9LFmTIM8fgRyb6IzEOjice8sD/CGUft57JP3kmH8p3rI/ILJS3S3ptqFQhcR0dUeUKFEwlCSqSMCk891NxVJhQx5RDlv1NFUbjQiYe3wT5wwCMqnTKqbxRprzxCOJCZljjJz86VmWJ6RI3TuR+8hn1id6lCxyNN3agHOKK8k1uWN6Je5iuiXdUPasuFHfuR5b4I8QR80VHRmc5iqutngX5JL+kN6zdwqyUtyt6fzIdxaH0vLPzH4WqY8qo5R1Towjk/qaOSYW2QQUTF3kbJY9cm5EC4qHhUE7yN0peecwbUt44KRdpR9BPbPDRn+sTyBPuWUC66JSyxQ40Tj1jPGNZc/+wAampo0bGrWdBnkiLtNFb1HXOLJS3S3pvqETeafKOyb5YWYCyUbqIfjWI2ACIo20kQZ7KVKWTh2jsBPvZF+Nvgv2kG+MdJw/EHUfs2Di1nzBBvJRX5H702aS/prKtJPlgMU49ExZnerkf+Wg0SCPG2USsD0C+TRfEiwxp087Qf2x/TfS5vF3S25PpbR866PrjD6QzzocOOGk9zscf3nvvverKlStLJyJJX/mMsJ8T/5Ij3mk+BND24Yf8xf+5f9oPAXQBOp32Ix/ACf8tW7ak/5D79ZEE6a/Lj3xEFhYWnjqJzSuWuQKcMyvl7ZTaYPUOLDsjA0XARWsP/B9UaLL8jB6MXMhpVsEoEkei3M+UmuOJV6OJ0moaBZFh5GK/RhriUB6JX7BfcUUXR71JIU7KqrgoJ3kSSlN6Ii38yit5jzOs3I8OkVeY0sGtNFH3qk/RVs/sxy9d5H6gjjg+6gXXVB+T1PO0PG/lHQd/3MEYUzy+4dMYUzw2VMaY4rGhMsYUjw2VMaZ4bKiMMcVjQ2WMKR4bKmNM8dhQGWOKx4bKGFM8NlTGmOKxoTLGFI8NlTGmeGyojDHFY0NljCkeGypjTPHYUBljiseGyhhTPDZUxpjisaEyxhSPDZUxpnhsqIwxxWNDZYwpHhsqY0zx2FA9Z/DF27m5uafc8ePHl744rbD45Vy+yKvwYV/wnQa+0Jyn1UdUjugoE1+TFsisW7cu7dMXimNdmBbSZ0jNcwNfvqXa9fVdfXlXX7zVF5Xzr/MSpi/ldglfXtZXfvsM5eDrwYIyodcIYVGGrxwj0/TlbfM0nlE9Zzx48CBtd+3albZbt26tdu7cWd24cSP5Dx8+XA06T/Xo0aPkh08//bQaGKm0r2vu379f7d27t/b1F8qxf//+2ldVR44cqR4+fFjdvn27DqmqhYWFFAbMYN9///3q3Llz1Z49e1KYGY4N1SrD8oBlgpYAMgaXLl1KS4VoHGj0yNDI+c9xO3bsSPu0PJN87hc3b96sBqN6tX79+jqkqu7du1dt27at9j0xVt999136Tzx5Prrk+vXr1ebNm9N/LYXikqkJ5EaBfljOEhdOyzDpjPJE8CtN6S2XZ+mW+yOUY/fu3bXv3wGBgUDoP3GfOnWq+vDDD1dMrzNHPbMyq0RcdrEEOHDgwOPB6JyWEiy18AvktHRgGYEcVXj27Nm0PGO5hp9joz9y6NChtB84XksU/gsdR3ox/a7RshNYkpLWsOUl+8m75NAV/ibI9/z8fJLVcchTVi1jhfzIkTZl13JUekLnUW/40bmIcQBxUC7JRziOffF4044N1SpDh6JTqJFHaMzsE7GzAJ2PDqJzHLmfDkP8EToJMnLESUfLQY4O2ZSviNIc5YYZOwyK0h+WjwjGVB2dOKNxjWBwkJEeIoRFnUTjL4g75jn3Ix8NKnHE8hL/MENEPMgMy7tpxoZqlaHB0njpWHlHzTsEHQDjI+gMsZPlfs0MhEb+NoMA5GfY7KYrME7q3PxvAyODHHqgbKOMKMaDMsTyQ64T/uczH/IT9Rz9pIk/GhryNE7+SQudIkv+zPjYUBWCOpbIO4RG7dg5afBx5M79GK3Y4Ygjn2E1oVlS22xquVBe8kfnJb1RkBfKxxbDjrHNjVAOspQ3GoVo/GW4o44UJnI/snEwgHGMOvuVX/6PUw/mX3wyfRXhpPCw+5Lu3r2btmvXrk0nX3VVDjjhC5zA3bJlS/oPuf/WrVvVmjVrlu7buXDhQjoZ3MaXX36ZtvGEe9dwYporYFx93LdvXwqjnPGergh54QKD8sSJaa6Y5SCj8jYhnZD+5cuXUxh+dEq6utggcv+dO3dSHjie/OIox8aNG2uJ/4LMyZMnq9OnTyc/5R0MQP85IW9GUBssswrofAUuX9YxG2DkZrRmloSf/4TxXyM9/yH3A7LEyz7iUFpx1pUT5dpmLMuBWQ75Eyy/xpmZtKHZSixD1An+GJ4vu5m1xaVg7qeOOF5hSgfXBPLEH2dQmh1Tfp+rGo85fgZKM8aYYvHSrwHdz8Mywhiz+nhG1QDnKjZs2JDOI2zatKkONcasFp5RNcBdxdu3b7eRMqYQbKga4EoPz23pMRaulHX51gBjzGTYUDXArQBccuay9e+//57Cvv3227TN4VK4nikb5kZdLjfGtONzVA0wi+KNATztDpxcf/PNN6uPPvoo+bsCI2aMcFccjmdUGdzIh6GSkQLeLsCNl11Dw7SzkzPDsaHKyO9E5u5hrv7p7ukcL/2MWXm89MvQ+4E4kY6Revvtt6tjx45VZ86cSeHGmGePZ1QZzJ7m5+fTTAgj9fHHH9tIGbPKeEZlegMz3DfeeKP2PYFB5YsvvqgOHjxYh5hZxDMq0xt4t/iJEyfSOUTGVxz3ux09erSWMLOKDZXpFSzN2z6iYGYPGyozNaV+RMHMHjZUZmq4Wx/Dsbi4mBxLMu7mP3/+fHXlypWlT0MBxkcvyuOKKsaGZdzVq1fTC+y4V43zTby0L/p//vnnOoan4wCMHIaSeMyMw8l0Y6aBl9TxUrgSP6JgZgsbKrMsMB4Yq/xtoLwBM4bxX2/FFBib+FbT6Oftm/jjGzB52ybOPH/YUJllg1FhdoPREnE2pNckR6OkMJH7kc1nYF28qtj0E5+jMlNR4kcUzAxTGyxjJqK0jyiY2cZ3phtjisdLP2NM8dhQGWOKx4bKGFM8NlTGmOKxoTLGFI8NlTGmeGyojDGFU1X/B612qHCgsw2jAAAAAElFTkSuQmCC;" vertex="1" parent="1">
          <mxGeometry x="354.71" y="495" width="200.58" height="70" as="geometry" />
        </mxCell>
        <mxCell id="dS_RcsqamMiCzQS2eSSl-13" value="" style="shape=image;verticalLabelPosition=bottom;labelBackgroundColor=default;verticalAlign=top;aspect=fixed;imageAspect=0;image=data:image/png,iVBORw0KGgoAAAANSUhEUgAAAMsAAAA7CAYAAADVaX4qAAAAAXNSR0IArs4c6QAAAARnQU1BAACxjwv8YQUAAAAJcEhZcwAADsMAAA7DAcdvqGQAAAepSURBVHhe7Z27i9VKGMBnby/46sRGbcTCRdYHvsDCXQsRYUUtLAQFUcFCRPGFhagoYiG+FlawUNQFG/EtKPgA36wo2LhiYamI/gPe/D5n9mbPzTlJ5iRnz2S/HwzJZGNOMplv5ntN7PgTYRRFSeUfu1UUJQUVFkXJiAqLomREhUVRMlIpYfnx44dZsWKFmThxonn//r2ZMWOG7H/58sWeoSj+VEpYPn36ZM6dO2d+/vxpBgYGzMuXL8306dPtXxWlOSrnOmZG6e3tNZ8/f5aZZv78+bKvKM1SOZvlxYsXpru7W/aZWdi/du2aCI6iNEPlhOXx48dm5cqVtmbM+fPnZTtp0iTZKoovGsFXlIyo67hinDhxQopSPCosFQH3+Ny5c82ePXvsEaVoVFgqAIJy8uRJc+/ePdPT02OPKkUTpLCgZnR0dDRdnj17Zq8YNtOmTZP4kjoxyiVIYdm0adNwsLGrq8vgo8havn//btatWyf/VlHyEKSwMILeuHFD9t+8eZPLoOXfHj161NYUJTvB2iyzZ882Fy5ckH2M2jwqFWqLpsEoeQnawN+yZcuwQbtq1apcUXpSYBYvXmxripJO0MICV65cMRMmTJDkye3bt9ujYxcGjK9fv9qaUiiR0Rs8T58+JQtBSqSa2aNji3379v2JVMvhdujq6pJjSnFUJt0FI98F5AYHB8WmUZQiqVRuGAu/7t+/L+5kAnQad1CKJHibJY6zX3AnHzx40B5VqgiaBINjK6mUsDCT3Lx5U/ZJzb9z547sK0oReAsLC6pY375//37xwCDlpJCMdsYr7uDIsJX9DRs26Pp7Rfrntm3bhtOcSDhlRW1evISFDvjhwwdz+fJl8/btW1F5UIEIEubJenU336j4cOTIEbFbcCdraoty8eJF8/r1a0l1oniDge/L8ePHxV0Z3YDUnQu3HRgaGvoT2S9yP9xXFjhXS3uUWuhrSefFC+ckQTghGjSH+6kvTfXsnp6eEXGNq1evSgd1bN26dVTjHtwfjaRUDwSD95sFBk7OdULlS1MG/qtXr8ysWbNszZhLly6Z9evX25qRtHFSUuqRpHbVFl+wnbi/s2fP2iPKWAQnDyr5jh07kBIpvngLCwYSNsHv37+l7jrnrl27pO4+dtcId/ONig8kVWI74RnTWMvY5uPHj5I0yyexAMeUrxPKW1j45BDG86FDh2QGePTokXxZhYxeOHDgwPAniVoJno+NGzeKR8wnURJBa2ZGU/wpo+3XrFkjA+bkyZNl8H7y5Imsh/IiGr29wBaoZ1ABtspo2CvcF3lRvrSTk8IZtdh+ZeL0eWzO0aSd2j4J75nlwYMHZuHChbb2f5hlpk6d2tLAIFMs99Xf32+PhM3u3btF3166dKk9Ug64/WHevHmyVZLxjrNgr5w5c8YeSQajasqUKbZWLthQBJ5wKlQpiXJoaMgsX77c1srh27dvotc7FVpJxktYaNRoVpKRvB78jQVWreq4mzdvFhsp7o0rAoQQXZeorwMDEd2a7IUy4bfpxHRm9z8ClDFTY38yg4GzG+LPm0RaXha2I9fgnhlcXZYHzxEq3mpYO0GnZaYrw008MDAgiZkUt3QZ9QjWrl0r27KgE2OcsmXgYTA4ffq0/WtxoDIvW7ZM9hHMyIaRrO0kmL1dqghCgAAgCLUQNecaCPvDhw/NqVOnTGSDhf2R9r+mS7g4ozBrlD6NekYmTgPn0CASnDUgFg+G1Sv17h1nRTyo2igQl3Td2lIPAsmDg4Ny/bQFYzw7jhsyN2iTtHbnelw/i/OgXtu3C0HPLIxorL1nxMrrJmaEzONvR6Vwy3UZNXGNO7hWX1+frY2E0TVq54al3r3jrIh/iYbfHz9+vK2NJOm6tSUJFy/r7OyU2FTabPnr1y+ZiYCZbty4cbJfj0WLFsk2ST1GJXOzVAgELSysuWead2pRHuiIecD2cro3HSbewdMyFXxwncgZ3fwuduDq1aulXhTOXkGYaEsWzzWCL1/u3btXOvrOnTvNsWPHEtUw4PitW7dEGGm7Wlpp0xZC1EhBgirA9E7eT15QCXj0pDhQPVXAHSfmEU/IQy2K58MVhVN1+C2eEZWHUjSoeU71YstvOJWsEWlqKPdNW3Etrsn1eCb3vmjLuIoJ7a6GBSksvAAatdmSpG83emEcv337tq39hfNrX3oRcE06GILI79YKaVFwffdMdGTqCEIzv+USanlPgJDwDHEBdMITR4WlBOhINGqzJY+w0KGSjF9eeO1LV9LhHTphcrS7sARps6C7R/fedMnqFCC2ge7NorJaRiNToQpgM+IccO74EAjawMdoTMtsjsP5aV4wBAhBAgSAAN3z58/N4cOH5VgSrcxUqBK8i5kzZ9rayLZvRyrzKSRGqCVLltjaf0T6t7hv8S7h6Xn37p2ZM2eOlwdNGdsEO7O4tAwX33CjUm1xkWhclAgIgqIoPgQrLAgHs8aCBQvsEUUpl6BtlnhQy800tSUt4U9RshKssGCDEEVGSDDc09QwBzYLEXhFyUvQMwsG+927dzOtw3Azz/Xr1yXfin1FyUOlPgyuKGUS9MyiKK1EhUVRMqLCoigZUWFRlIyosChKRlRYFCUjKiyKkglj/gV4Kqnf7qiNgAAAAABJRU5ErkJggg==;" vertex="1" parent="1">
          <mxGeometry x="386.18" y="600" width="137.63" height="40" as="geometry" />
        </mxCell>
        <mxCell id="dS_RcsqamMiCzQS2eSSl-24" style="edgeStyle=orthogonalEdgeStyle;rounded=0;orthogonalLoop=1;jettySize=auto;html=1;entryX=1;entryY=0.5;entryDx=0;entryDy=0;" edge="1" parent="1" source="dS_RcsqamMiCzQS2eSSl-16" target="dS_RcsqamMiCzQS2eSSl-21">
          <mxGeometry relative="1" as="geometry" />
        </mxCell>
        <mxCell id="dS_RcsqamMiCzQS2eSSl-16" value="" style="shape=loopLimit;whiteSpace=wrap;html=1;rotation=-180;" vertex="1" parent="1">
          <mxGeometry x="405" y="670" width="100" height="60" as="geometry" />
        </mxCell>
        <mxCell id="dS_RcsqamMiCzQS2eSSl-17" value="&lt;span style=&quot;text-wrap: wrap;&quot;&gt;Увеличить i на 1&lt;/span&gt;&lt;br style=&quot;text-wrap: wrap;&quot;&gt;&lt;span style=&quot;text-wrap: wrap;&quot;&gt;Цикл i&lt;/span&gt;" style="text;html=1;align=center;verticalAlign=middle;resizable=0;points=[];autosize=1;strokeColor=none;fillColor=none;" vertex="1" parent="1">
          <mxGeometry x="400" y="680" width="110" height="40" as="geometry" />
        </mxCell>
        <mxCell id="dS_RcsqamMiCzQS2eSSl-26" style="edgeStyle=orthogonalEdgeStyle;rounded=0;orthogonalLoop=1;jettySize=auto;html=1;exitX=0.5;exitY=1;exitDx=0;exitDy=0;entryX=0.5;entryY=0;entryDx=0;entryDy=0;" edge="1" parent="1" source="dS_RcsqamMiCzQS2eSSl-20" target="dS_RcsqamMiCzQS2eSSl-25">
          <mxGeometry relative="1" as="geometry" />
        </mxCell>
        <mxCell id="dS_RcsqamMiCzQS2eSSl-20" value="" style="rounded=0;whiteSpace=wrap;html=1;" vertex="1" parent="1">
          <mxGeometry x="210" y="670" width="160" height="60" as="geometry" />
        </mxCell>
        <mxCell id="dS_RcsqamMiCzQS2eSSl-21" value="" style="shape=image;verticalLabelPosition=bottom;labelBackgroundColor=default;verticalAlign=top;aspect=fixed;imageAspect=0;image=data:image/png,iVBORw0KGgoAAAANSUhEUgAAAHsAAAA/CAYAAADADrcFAAAFOUlEQVR4Ae2bC3HrMBBFQ6EYSqEcCqEYSqEMyiAMiqAISqAEyqAc/ObkzZ2ntyPJ+sVW4tVMx7Gtz+492pVip6fFy2EUOB3GU3d0cdgHmgQO22EfSIEDuTo0sl9eXpaHh4fl6+treX19XU6n0/L29nYgOed2dRhsAH9/fy/Pz8/L09PT5fPHx8flfG4JjmPdMNiSTJHN+fv7u0e2hJngOBQ2kU3qViHCPz8/derHnRX4R2aAIefz+b+0Dfifn5+F6172V2AobDZlpG4VIvvx8fGyfuuaH/dTYCjs/dzwkUsUcNglKt1JHYd9JyBL3HDYJSrdSZ0q2Oyq2WGP+As3cnei5fRuVMH+/f29PB0DNg9POK8pYXuHXaPcmLpVsBlSD04AzqPR2sL3bto67Frl+utXw2bIMJ23PDDhu7fD7odX20MTbAbhDZfWbqK9ppARHHaNYmPqNsNm/SVCAc6xdv0eY773UqNAM2wGCddvHpV6mVuBLti4RjpWOuf9tZd5FeiGjWuswQDn6xi7bS9/FeAHHextavc00o9AImOO0nQIbNZrQAOcN129BSdn38Dhs356hd/2vT1ZDi169zJMmNybQwKNOiVlCGwGYkCl815QtwAbkYlaihUcLVoeOqWACXhs4tixU31wfRhsOuPHhQJeOttixs0OWxM7lV4B0PL8IaaFrpElYkG0G2wMwyiA98zs2WET0aTWWNETwtREiLUpucbkiY25K2yc1PqtNFfiTFjHwmaDg6P0G4qoLBJLb2F/Iz9rTB2tj6zV3IsV7uGD9jXYDawYRNte2cT6uitsjGSzIjGs0SXnFrZ2pAgVpjI+4+zWBTipNJ2yCUgsc4p8NML20p26YNvlcXfYiu4QTA0Q2sXaAj2Ey3noPADC+3ZM7mkSpo659vQnWOG44Tgp2GEdIpu/GOiUD9PCxpE10ULn7ecUbIQguimIDuytSy5NYwu2K02nbCPCa/WZEjbO2rU15XTqego2kUBEkhIBHa5fitpUxKXGqr3OGp0DtTYZ8IHJoEkbjp/zQbBDn2lLm1Kf4zuJ0IKKzzIIh3tKCjZ9AhvB7UMMRODetYvdN9jxlOY52gJo4KgOPuCr6uZ8oF5sI7cLbAzFGLs7tQ6XnOdg41wsfTPRuHfNosyyFknYgQ9hQRuuKzLRickZBkbOB7KB7ZP+6XPNHtkxLBQwHofkjAZoOaZgKzJiY6TatIyfahPuGVJ1uI74ZICYnbl2KR/IACltN4etdap0huUc5l7Mac36lIA4jR1hpKyNU3OfcRG89F+QsYNoTNkbGzvmAxOccTnGyqawWW/W1rGYkblrIWxmNenObshseyBgxzVgM9FKbLA20Y6MlwJl61sfyCT4rTXd1ud8U9jMXv68zK9A15pNBBJNuZk3vwTHsbAZtlIbqcbLbSjQBFubldavWUwQ1hov2yrQBBvILV8t5BrtHbbU2O5YDZvdLjtT0nhLUfqPPRhp6c/blCtQBVtfs4Dd+8fmzsu2ClTBJv32QlZ7h70taEargr29eT7iSAUc9kg1J++rGTYpvTYVs+azMattN7mGN2NeM+xaD9nF6xcaDrtWvTH1m2BrkyUT9HVK18OjBcu5vaZ+/HhdBZpg8yaq9aGIw74u0FzvTbB7gPW0zTni99YVaIJt36F6Gl8XeoYaTbBZk3khTzqvLUwUdvJetlegCTY/Vsj9VCbmRiz6ueZlOwWaYG9nno80UgGHPVLNyfty2JMDGmmewx6p5uR9OezJAY00z2GPVHPyvhz25IBGmvcHpKaxpPFJmdEAAAAASUVORK5CYII=;" vertex="1" parent="1">
          <mxGeometry x="272.38" y="675" width="97.62" height="50" as="geometry" />
        </mxCell>
        <mxCell id="dS_RcsqamMiCzQS2eSSl-23" value="max = max" style="text;html=1;align=center;verticalAlign=middle;resizable=0;points=[];autosize=1;strokeColor=none;fillColor=none;" vertex="1" parent="1">
          <mxGeometry x="210" y="685" width="80" height="30" as="geometry" />
        </mxCell>
        <mxCell id="dS_RcsqamMiCzQS2eSSl-28" style="edgeStyle=orthogonalEdgeStyle;rounded=0;orthogonalLoop=1;jettySize=auto;html=1;entryX=0.5;entryY=0;entryDx=0;entryDy=0;" edge="1" parent="1" source="dS_RcsqamMiCzQS2eSSl-25" target="dS_RcsqamMiCzQS2eSSl-27">
          <mxGeometry relative="1" as="geometry" />
        </mxCell>
        <mxCell id="dS_RcsqamMiCzQS2eSSl-25" value="Вывести max" style="shape=parallelogram;perimeter=parallelogramPerimeter;whiteSpace=wrap;html=1;fixedSize=1;" vertex="1" parent="1">
          <mxGeometry x="230" y="750" width="120" height="60" as="geometry" />
        </mxCell>
        <mxCell id="dS_RcsqamMiCzQS2eSSl-27" value="Конец" style="rounded=1;whiteSpace=wrap;html=1;arcSize=50;" vertex="1" parent="1">
          <mxGeometry x="230" y="830" width="120" height="30" as="geometry" />
        </mxCell>
      </root>
    </mxGraphModel>
  </diagram>
</mxfile>
